G04 PROTEUS GERBER X2 FILE*
%TF.GenerationSoftware,Labcenter,Proteus,8.6-SP2-Build23525*%
%TF.CreationDate,2020-11-09T16:46:44+00:00*%
%TF.FileFunction,Legend,Top*%
%TF.FilePolarity,Positive*%
%TF.Part,Single*%
%FSLAX45Y45*%
%MOMM*%
G01*
%TA.AperFunction,Material*%
%ADD27C,0.508000*%
%ADD28C,0.152400*%
%ADD29C,0.203200*%
%TA.AperFunction,Profile*%
%ADD24C,0.203200*%
%TA.AperFunction,NonMaterial*%
%ADD72C,0.203200*%
%TA.AperFunction,Material*%
%ADD73C,0.063500*%
%TD.AperFunction*%
D27*
X+2101600Y+1917000D02*
X+2101469Y+1920158D01*
X+2100403Y+1926476D01*
X+2098172Y+1932794D01*
X+2094527Y+1939112D01*
X+2088952Y+1945351D01*
X+2082634Y+1949947D01*
X+2076316Y+1952880D01*
X+2069998Y+1954542D01*
X+2063680Y+1955100D01*
X+2063500Y+1955100D01*
X+2025400Y+1917000D02*
X+2025531Y+1920158D01*
X+2026597Y+1926476D01*
X+2028828Y+1932794D01*
X+2032473Y+1939112D01*
X+2038048Y+1945351D01*
X+2044366Y+1949947D01*
X+2050684Y+1952880D01*
X+2057002Y+1954542D01*
X+2063320Y+1955100D01*
X+2063500Y+1955100D01*
X+2025400Y+1917000D02*
X+2025531Y+1913842D01*
X+2026597Y+1907524D01*
X+2028828Y+1901206D01*
X+2032473Y+1894888D01*
X+2038048Y+1888649D01*
X+2044366Y+1884053D01*
X+2050684Y+1881120D01*
X+2057002Y+1879458D01*
X+2063320Y+1878900D01*
X+2063500Y+1878900D01*
X+2101600Y+1917000D02*
X+2101469Y+1913842D01*
X+2100403Y+1907524D01*
X+2098172Y+1901206D01*
X+2094527Y+1894888D01*
X+2088952Y+1888649D01*
X+2082634Y+1884053D01*
X+2076316Y+1881120D01*
X+2069998Y+1879458D01*
X+2063680Y+1878900D01*
X+2063500Y+1878900D01*
D28*
X+1746000Y+2285300D02*
X+1746000Y-2007300D01*
X+2000000Y-2007300D01*
X+2000000Y+2285300D01*
X+1746000Y+2285300D01*
D29*
X+2218440Y+12000D02*
X+2233680Y+12000D01*
X+2248920Y+27875D01*
X+2248920Y+91375D01*
X+2233680Y+107250D01*
X+2157480Y+107250D01*
X+2218440Y+234250D02*
X+2218440Y+139000D01*
X+2157480Y+202500D01*
X+2248920Y+202500D01*
D27*
X+3244600Y-1639000D02*
X+3244469Y-1635842D01*
X+3243403Y-1629524D01*
X+3241172Y-1623206D01*
X+3237527Y-1616888D01*
X+3231952Y-1610649D01*
X+3225634Y-1606053D01*
X+3219316Y-1603120D01*
X+3212998Y-1601458D01*
X+3206680Y-1600900D01*
X+3206500Y-1600900D01*
X+3168400Y-1639000D02*
X+3168531Y-1635842D01*
X+3169597Y-1629524D01*
X+3171828Y-1623206D01*
X+3175473Y-1616888D01*
X+3181048Y-1610649D01*
X+3187366Y-1606053D01*
X+3193684Y-1603120D01*
X+3200002Y-1601458D01*
X+3206320Y-1600900D01*
X+3206500Y-1600900D01*
X+3168400Y-1639000D02*
X+3168531Y-1642158D01*
X+3169597Y-1648476D01*
X+3171828Y-1654794D01*
X+3175473Y-1661112D01*
X+3181048Y-1667351D01*
X+3187366Y-1671947D01*
X+3193684Y-1674880D01*
X+3200002Y-1676542D01*
X+3206320Y-1677100D01*
X+3206500Y-1677100D01*
X+3244600Y-1639000D02*
X+3244469Y-1642158D01*
X+3243403Y-1648476D01*
X+3241172Y-1654794D01*
X+3237527Y-1661112D01*
X+3231952Y-1667351D01*
X+3225634Y-1671947D01*
X+3219316Y-1674880D01*
X+3212998Y-1676542D01*
X+3206680Y-1677100D01*
X+3206500Y-1677100D01*
D28*
X+3524000Y-2007300D02*
X+3524000Y+2285300D01*
X+3270000Y+2285300D01*
X+3270000Y-2007300D01*
X+3524000Y-2007300D01*
D29*
X+3082040Y+12000D02*
X+3097280Y+12000D01*
X+3112520Y+27875D01*
X+3112520Y+91375D01*
X+3097280Y+107250D01*
X+3021080Y+107250D01*
X+3021080Y+234250D02*
X+3021080Y+154875D01*
X+3051560Y+154875D01*
X+3051560Y+218375D01*
X+3066800Y+234250D01*
X+3097280Y+234250D01*
X+3112520Y+218375D01*
X+3112520Y+170750D01*
X+3097280Y+154875D01*
X+4115000Y-1440500D02*
X+5639000Y-1440500D01*
X+5639000Y-1059500D01*
X+4115000Y-1059500D01*
X+4115000Y-1440500D01*
X+4750000Y-1572580D02*
X+4750000Y-1481140D01*
X+4829375Y-1481140D01*
X+4845250Y-1496380D01*
X+4845250Y-1511620D01*
X+4829375Y-1526860D01*
X+4845250Y-1542100D01*
X+4845250Y-1557340D01*
X+4829375Y-1572580D01*
X+4750000Y-1572580D01*
X+4750000Y-1526860D02*
X+4829375Y-1526860D01*
X+4877000Y-1481140D02*
X+4972250Y-1481140D01*
X+4924625Y-1481140D02*
X+4924625Y-1572580D01*
D24*
X-1250000Y-2000000D02*
X+5960000Y-2000000D01*
X+5960000Y+4250000D01*
X-1250000Y+4250000D01*
X-1250000Y-2000000D01*
D72*
X+1865000Y+2401000D02*
X+3389000Y+2401000D01*
X+1865000Y+2401000D02*
X+1992000Y+2274000D01*
X+1865000Y+2401000D02*
X+1992000Y+2528000D01*
X+3389000Y+2401000D02*
X+3262000Y+2528000D01*
X+3389000Y+2401000D02*
X+3262000Y+2274000D01*
X+2658750Y+2401000D02*
X+2658641Y+2403634D01*
X+2657751Y+2408903D01*
X+2655889Y+2414172D01*
X+2652846Y+2419441D01*
X+2648191Y+2424643D01*
X+2642922Y+2428469D01*
X+2637653Y+2430909D01*
X+2632384Y+2432290D01*
X+2627115Y+2432750D01*
X+2627000Y+2432750D01*
X+2595250Y+2401000D02*
X+2595359Y+2403634D01*
X+2596249Y+2408903D01*
X+2598111Y+2414172D01*
X+2601154Y+2419441D01*
X+2605809Y+2424643D01*
X+2611078Y+2428469D01*
X+2616347Y+2430909D01*
X+2621616Y+2432290D01*
X+2626885Y+2432750D01*
X+2627000Y+2432750D01*
X+2595250Y+2401000D02*
X+2595359Y+2398366D01*
X+2596249Y+2393097D01*
X+2598111Y+2387828D01*
X+2601154Y+2382559D01*
X+2605809Y+2377357D01*
X+2611078Y+2373531D01*
X+2616347Y+2371091D01*
X+2621616Y+2369710D01*
X+2626885Y+2369250D01*
X+2627000Y+2369250D01*
X+2658750Y+2401000D02*
X+2658641Y+2398366D01*
X+2657751Y+2393097D01*
X+2655889Y+2387828D01*
X+2652846Y+2382559D01*
X+2648191Y+2377357D01*
X+2642922Y+2373531D01*
X+2637653Y+2371091D01*
X+2632384Y+2369710D01*
X+2627115Y+2369250D01*
X+2627000Y+2369250D01*
X+2214250Y+2498600D02*
X+2246000Y+2529080D01*
X+2246000Y+2437640D01*
X+2404750Y+2529080D02*
X+2325375Y+2529080D01*
X+2325375Y+2498600D01*
X+2388875Y+2498600D01*
X+2404750Y+2483360D01*
X+2404750Y+2452880D01*
X+2388875Y+2437640D01*
X+2341250Y+2437640D01*
X+2325375Y+2452880D01*
X+2484125Y+2452880D02*
X+2500000Y+2452880D01*
X+2500000Y+2437640D01*
X+2484125Y+2437640D01*
X+2484125Y+2452880D01*
X+2579375Y+2513840D02*
X+2595250Y+2529080D01*
X+2642875Y+2529080D01*
X+2658750Y+2513840D01*
X+2658750Y+2498600D01*
X+2642875Y+2483360D01*
X+2595250Y+2483360D01*
X+2579375Y+2468120D01*
X+2579375Y+2437640D01*
X+2658750Y+2437640D01*
X+2785750Y+2468120D02*
X+2690500Y+2468120D01*
X+2754000Y+2529080D01*
X+2754000Y+2437640D01*
X+2817500Y+2437640D02*
X+2817500Y+2498600D01*
X+2817500Y+2483360D02*
X+2833375Y+2498600D01*
X+2865125Y+2468120D01*
X+2896875Y+2498600D01*
X+2912750Y+2483360D01*
X+2912750Y+2437640D01*
X+2944500Y+2437640D02*
X+2944500Y+2498600D01*
X+2944500Y+2483360D02*
X+2960375Y+2498600D01*
X+2992125Y+2468120D01*
X+3023875Y+2498600D01*
X+3039750Y+2483360D01*
X+3039750Y+2437640D01*
X+2000000Y+2040000D02*
X+3270000Y+2040000D01*
X+2000000Y+2040000D02*
X+2127000Y+1913000D01*
X+2000000Y+2040000D02*
X+2127000Y+2167000D01*
X+3270000Y+2040000D02*
X+3143000Y+2167000D01*
X+3270000Y+2040000D02*
X+3143000Y+1913000D01*
X+2666750Y+2040000D02*
X+2666641Y+2042634D01*
X+2665751Y+2047903D01*
X+2663889Y+2053172D01*
X+2660846Y+2058441D01*
X+2656191Y+2063643D01*
X+2650922Y+2067469D01*
X+2645653Y+2069909D01*
X+2640384Y+2071290D01*
X+2635115Y+2071750D01*
X+2635000Y+2071750D01*
X+2603250Y+2040000D02*
X+2603359Y+2042634D01*
X+2604249Y+2047903D01*
X+2606111Y+2053172D01*
X+2609154Y+2058441D01*
X+2613809Y+2063643D01*
X+2619078Y+2067469D01*
X+2624347Y+2069909D01*
X+2629616Y+2071290D01*
X+2634885Y+2071750D01*
X+2635000Y+2071750D01*
X+2603250Y+2040000D02*
X+2603359Y+2037366D01*
X+2604249Y+2032097D01*
X+2606111Y+2026828D01*
X+2609154Y+2021559D01*
X+2613809Y+2016357D01*
X+2619078Y+2012531D01*
X+2624347Y+2010091D01*
X+2629616Y+2008710D01*
X+2634885Y+2008250D01*
X+2635000Y+2008250D01*
X+2666750Y+2040000D02*
X+2666641Y+2037366D01*
X+2665751Y+2032097D01*
X+2663889Y+2026828D01*
X+2660846Y+2021559D01*
X+2656191Y+2016357D01*
X+2650922Y+2012531D01*
X+2645653Y+2010091D01*
X+2640384Y+2008710D01*
X+2635115Y+2008250D01*
X+2635000Y+2008250D01*
X+2285750Y+1891600D02*
X+2317500Y+1922080D01*
X+2317500Y+1830640D01*
X+2396875Y+1906840D02*
X+2412750Y+1922080D01*
X+2460375Y+1922080D01*
X+2476250Y+1906840D01*
X+2476250Y+1891600D01*
X+2460375Y+1876360D01*
X+2412750Y+1876360D01*
X+2396875Y+1861120D01*
X+2396875Y+1830640D01*
X+2476250Y+1830640D01*
X+2555625Y+1845880D02*
X+2571500Y+1845880D01*
X+2571500Y+1830640D01*
X+2555625Y+1830640D01*
X+2555625Y+1845880D01*
X+2650875Y+1922080D02*
X+2730250Y+1922080D01*
X+2730250Y+1906840D01*
X+2650875Y+1830640D01*
X+2762000Y+1830640D02*
X+2762000Y+1891600D01*
X+2762000Y+1876360D02*
X+2777875Y+1891600D01*
X+2809625Y+1861120D01*
X+2841375Y+1891600D01*
X+2857250Y+1876360D01*
X+2857250Y+1830640D01*
X+2889000Y+1830640D02*
X+2889000Y+1891600D01*
X+2889000Y+1876360D02*
X+2904875Y+1891600D01*
X+2936625Y+1861120D01*
X+2968375Y+1891600D01*
X+2984250Y+1876360D01*
X+2984250Y+1830640D01*
D29*
X+2278000Y+3817000D02*
X+3163000Y+3817000D01*
X+3163000Y+4198000D01*
X+2278000Y+4198000D01*
X+2278000Y+3817000D01*
X-631000Y+1450000D02*
X+1009000Y+1450000D01*
X+1009000Y+3700000D01*
X-631000Y+3700000D01*
X-631000Y+1450000D01*
X-671640Y+2884500D02*
X-763080Y+2884500D01*
X-763080Y+2963875D01*
X-747840Y+2979750D01*
X-732600Y+2979750D01*
X-717360Y+2963875D01*
X-717360Y+2884500D01*
X-717360Y+2963875D02*
X-702120Y+2979750D01*
X-671640Y+2979750D01*
X-763080Y+3011500D02*
X-671640Y+3011500D01*
X-671640Y+3106750D01*
X-747840Y+3154375D02*
X-763080Y+3170250D01*
X-763080Y+3217875D01*
X-747840Y+3233750D01*
X-732600Y+3233750D01*
X-717360Y+3217875D01*
X-717360Y+3170250D01*
X-702120Y+3154375D01*
X-671640Y+3154375D01*
X-671640Y+3233750D01*
X-24000Y+1012000D02*
X-24000Y+1139000D01*
X+484000Y+1139000D01*
X+484000Y+631000D01*
X-24000Y+631000D01*
X-24000Y+758000D01*
X+103000Y+885000D02*
X+100564Y+910876D01*
X+93515Y+934848D01*
X+82238Y+956438D01*
X+67122Y+975170D01*
X+48554Y+990569D01*
X+26919Y+1002158D01*
X+2606Y+1009460D01*
X-24000Y+1012000D01*
X+103000Y+885000D02*
X+100564Y+858394D01*
X+93515Y+834081D01*
X+82238Y+812446D01*
X+67122Y+793878D01*
X+48554Y+778762D01*
X+26919Y+767485D01*
X+2606Y+760436D01*
X-24000Y+758000D01*
X-125600Y-313500D02*
X-156080Y-281750D01*
X-156080Y-250000D01*
X-125600Y-218250D01*
X-95120Y-218250D01*
X-64640Y-250000D01*
X-64640Y-281750D01*
X-95120Y-313500D01*
X-125600Y-313500D01*
X-64640Y-186500D02*
X-156080Y-186500D01*
X-156080Y-107125D01*
X-140840Y-91250D01*
X-125600Y-91250D01*
X-110360Y-107125D01*
X-110360Y-186500D01*
X-156080Y-59500D02*
X-156080Y+35750D01*
X-156080Y-11875D02*
X-64640Y-11875D01*
X-125600Y+67500D02*
X-156080Y+99250D01*
X-156080Y+131000D01*
X-125600Y+162750D01*
X-95120Y+162750D01*
X-64640Y+131000D01*
X-64640Y+99250D01*
X-95120Y+67500D01*
X-125600Y+67500D01*
X-79880Y+289750D02*
X-64640Y+273875D01*
X-64640Y+226250D01*
X-95120Y+194500D01*
X-125600Y+194500D01*
X-156080Y+226250D01*
X-156080Y+273875D01*
X-140840Y+289750D01*
X-125600Y+321500D02*
X-156080Y+353250D01*
X-156080Y+385000D01*
X-125600Y+416750D01*
X-95120Y+416750D01*
X-64640Y+385000D01*
X-64640Y+353250D01*
X-95120Y+321500D01*
X-125600Y+321500D01*
X-156080Y+448500D02*
X-79880Y+448500D01*
X-64640Y+464375D01*
X-64640Y+527875D01*
X-79880Y+543750D01*
X-156080Y+543750D01*
X-64640Y+575500D02*
X-156080Y+575500D01*
X-156080Y+654875D01*
X-140840Y+670750D01*
X-125600Y+670750D01*
X-110360Y+654875D01*
X-110360Y+575500D01*
X-156080Y+702500D02*
X-64640Y+702500D01*
X-64640Y+797750D01*
X-64640Y+924750D02*
X-64640Y+829500D01*
X-156080Y+829500D01*
X-156080Y+924750D01*
X-110360Y+829500D02*
X-110360Y+893000D01*
X-64640Y+956500D02*
X-156080Y+956500D01*
X-156080Y+1035875D01*
X-140840Y+1051750D01*
X-125600Y+1051750D01*
X-110360Y+1035875D01*
X-110360Y+956500D01*
X-110360Y+1035875D02*
X-95120Y+1051750D01*
X-64640Y+1051750D01*
X-548000Y+3802000D02*
X+837000Y+3802000D01*
X+837000Y+4183000D01*
X-548000Y+4183000D01*
X-548000Y+3802000D01*
X+1441000Y+2575000D02*
X+1695000Y+2575000D01*
X+1695000Y+3337000D01*
X+1441000Y+3337000D01*
X+1441000Y+2575000D01*
X+1314000Y+2575000D01*
X+1314000Y+3337000D01*
X+1441000Y+3337000D01*
X+1441000Y+2575000D02*
X+1314000Y+2702000D01*
X+1441000Y+2702000D02*
X+1314000Y+2829000D01*
X+1441000Y+2829000D02*
X+1314000Y+2956000D01*
X+1441000Y+2956000D02*
X+1314000Y+3083000D01*
X+1441000Y+3083000D02*
X+1314000Y+3210000D01*
X+1441000Y+3210000D02*
X+1314000Y+3337000D01*
X+1181920Y+2829000D02*
X+1258120Y+2829000D01*
X+1273360Y+2844875D01*
X+1273360Y+2908375D01*
X+1258120Y+2924250D01*
X+1181920Y+2924250D01*
X+1212400Y+2987750D02*
X+1181920Y+3019500D01*
X+1273360Y+3019500D01*
X-1237100Y+1663000D02*
X-1237100Y+1155000D01*
X-1072000Y+1739200D02*
X-1110298Y+1734438D01*
X-1149788Y+1720150D01*
X-1191658Y+1696338D01*
X-1237100Y+1663000D01*
X-1072000Y+1739200D02*
X-1007082Y+1736569D01*
X-947047Y+1720088D01*
X-893058Y+1691161D01*
X-846278Y+1651193D01*
X-807869Y+1601588D01*
X-778995Y+1543751D01*
X-760818Y+1479087D01*
X-754500Y+1409000D01*
X-1072000Y+1078800D02*
X-1110298Y+1083562D01*
X-1149788Y+1097850D01*
X-1191658Y+1121662D01*
X-1237100Y+1155000D01*
X-1072000Y+1078800D02*
X-1007082Y+1081431D01*
X-947047Y+1097912D01*
X-893058Y+1126839D01*
X-846278Y+1166807D01*
X-807869Y+1216412D01*
X-778995Y+1274249D01*
X-760818Y+1338913D01*
X-754500Y+1409000D01*
X-683380Y+1282000D02*
X-713860Y+1313750D01*
X-713860Y+1345500D01*
X-683380Y+1377250D01*
X-652900Y+1377250D01*
X-622420Y+1345500D01*
X-622420Y+1313750D01*
X-652900Y+1282000D01*
X-683380Y+1282000D01*
X-652900Y+1345500D02*
X-622420Y+1377250D01*
X-683380Y+1440750D02*
X-713860Y+1472500D01*
X-622420Y+1472500D01*
X+1139380Y+1006920D02*
X+1406080Y+1006920D01*
X+1406080Y+1525080D01*
X+1139380Y+1525080D01*
X+1139380Y+1006920D01*
X+1141920Y+1088200D02*
X+1403540Y+1088200D01*
X+1274000Y+935800D02*
X+1274000Y+1006920D01*
X+1274000Y+1525080D02*
X+1274000Y+1596200D01*
X+1098740Y+1139000D02*
X+1007300Y+1139000D01*
X+1007300Y+1202500D01*
X+1037780Y+1234250D01*
X+1068260Y+1234250D01*
X+1098740Y+1202500D01*
X+1098740Y+1139000D01*
X+1037780Y+1297750D02*
X+1007300Y+1329500D01*
X+1098740Y+1329500D01*
X+2332920Y+2852920D02*
X+2851080Y+2852920D01*
X+2851080Y+3119620D01*
X+2332920Y+3119620D01*
X+2332920Y+2852920D01*
X+2414200Y+3117080D02*
X+2414200Y+2855460D01*
X+2261800Y+2985000D02*
X+2332920Y+2985000D01*
X+2851080Y+2985000D02*
X+2922200Y+2985000D01*
X+2465000Y+3160260D02*
X+2465000Y+3251700D01*
X+2528500Y+3251700D01*
X+2560250Y+3221220D01*
X+2560250Y+3190740D01*
X+2528500Y+3160260D01*
X+2465000Y+3160260D01*
X+2607875Y+3236460D02*
X+2623750Y+3251700D01*
X+2671375Y+3251700D01*
X+2687250Y+3236460D01*
X+2687250Y+3221220D01*
X+2671375Y+3205980D01*
X+2623750Y+3205980D01*
X+2607875Y+3190740D01*
X+2607875Y+3160260D01*
X+2687250Y+3160260D01*
X+2181920Y+3488380D02*
X+2700080Y+3488380D01*
X+2700080Y+3755080D01*
X+2181920Y+3755080D01*
X+2181920Y+3488380D01*
X+2618800Y+3490920D02*
X+2618800Y+3752540D01*
X+2771200Y+3623000D02*
X+2700080Y+3623000D01*
X+2181920Y+3623000D02*
X+2110800Y+3623000D01*
X+2314000Y+3356300D02*
X+2314000Y+3447740D01*
X+2377500Y+3447740D01*
X+2409250Y+3417260D01*
X+2409250Y+3386780D01*
X+2377500Y+3356300D01*
X+2314000Y+3356300D01*
X+2456875Y+3432500D02*
X+2472750Y+3447740D01*
X+2520375Y+3447740D01*
X+2536250Y+3432500D01*
X+2536250Y+3417260D01*
X+2520375Y+3402020D01*
X+2536250Y+3386780D01*
X+2536250Y+3371540D01*
X+2520375Y+3356300D01*
X+2472750Y+3356300D01*
X+2456875Y+3371540D01*
X+2488625Y+3402020D02*
X+2520375Y+3402020D01*
D73*
X+1859220Y+4086914D02*
X+1869380Y+4086914D01*
X+1859220Y+4091994D02*
X+1869380Y+4091994D01*
X+1859220Y+4097074D02*
X+1869380Y+4097074D01*
X+1859220Y+4102154D02*
X+1869380Y+4102154D01*
X+1859220Y+4107234D02*
X+1869380Y+4107234D01*
X+1859220Y+4112314D02*
X+1869380Y+4112314D01*
X+1630620Y+4117394D02*
X+1681420Y+4117394D01*
X+1696660Y+4117394D02*
X+1716980Y+4117394D01*
X+1727140Y+4117394D02*
X+1737300Y+4117394D01*
X+1752540Y+4117394D02*
X+1762700Y+4117394D01*
X+1793180Y+4117394D02*
X+1803340Y+4117394D01*
X+1828740Y+4117394D02*
X+1838900Y+4117394D01*
X+1859220Y+4117394D02*
X+1869380Y+4117394D01*
X+1879540Y+4117394D02*
X+1899860Y+4117394D01*
X+1950660Y+4117394D02*
X+1986220Y+4117394D01*
X+2016700Y+4117394D02*
X+2026860Y+4117394D01*
X+2057340Y+4117394D02*
X+2067500Y+4117394D01*
X+2097980Y+4117394D02*
X+2118300Y+4117394D01*
X+2128460Y+4117394D02*
X+2138620Y+4117394D01*
X+1630620Y+4122474D02*
X+1681420Y+4122474D01*
X+1691580Y+4122474D02*
X+1722060Y+4122474D01*
X+1727140Y+4122474D02*
X+1737300Y+4122474D01*
X+1752540Y+4122474D02*
X+1762700Y+4122474D01*
X+1793180Y+4122474D02*
X+1803340Y+4122474D01*
X+1828740Y+4122474D02*
X+1838900Y+4122474D01*
X+1859220Y+4122474D02*
X+1904940Y+4122474D01*
X+1940500Y+4122474D02*
X+1996380Y+4122474D01*
X+2016700Y+4122474D02*
X+2026860Y+4122474D01*
X+2057340Y+4122474D02*
X+2067500Y+4122474D01*
X+2087820Y+4122474D02*
X+2123380Y+4122474D01*
X+2128460Y+4122474D02*
X+2138620Y+4122474D01*
X+1630620Y+4127554D02*
X+1640780Y+4127554D01*
X+1686500Y+4127554D02*
X+1701740Y+4127554D01*
X+1716980Y+4127554D02*
X+1737300Y+4127554D01*
X+1752540Y+4127554D02*
X+1762700Y+4127554D01*
X+1793180Y+4127554D02*
X+1803340Y+4127554D01*
X+1828740Y+4127554D02*
X+1838900Y+4127554D01*
X+1859220Y+4127554D02*
X+1874460Y+4127554D01*
X+1894780Y+4127554D02*
X+1910020Y+4127554D01*
X+1935420Y+4127554D02*
X+1955740Y+4127554D01*
X+1981140Y+4127554D02*
X+1996380Y+4127554D01*
X+2016700Y+4127554D02*
X+2026860Y+4127554D01*
X+2057340Y+4127554D02*
X+2067500Y+4127554D01*
X+2087820Y+4127554D02*
X+2103060Y+4127554D01*
X+2118300Y+4127554D02*
X+2138620Y+4127554D01*
X+1630620Y+4132634D02*
X+1640780Y+4132634D01*
X+1686500Y+4132634D02*
X+1696660Y+4132634D01*
X+1722060Y+4132634D02*
X+1737300Y+4132634D01*
X+1752540Y+4132634D02*
X+1762700Y+4132634D01*
X+1793180Y+4132634D02*
X+1803340Y+4132634D01*
X+1828740Y+4132634D02*
X+1838900Y+4132634D01*
X+1859220Y+4132634D02*
X+1869380Y+4132634D01*
X+1899860Y+4132634D02*
X+1915100Y+4132634D01*
X+1930340Y+4132634D02*
X+1945580Y+4132634D01*
X+1986220Y+4132634D02*
X+1996380Y+4132634D01*
X+2016700Y+4132634D02*
X+2026860Y+4132634D01*
X+2057340Y+4132634D02*
X+2067500Y+4132634D01*
X+2082740Y+4132634D02*
X+2097980Y+4132634D01*
X+2123380Y+4132634D02*
X+2138620Y+4132634D01*
X+1630620Y+4137714D02*
X+1640780Y+4137714D01*
X+1686500Y+4137714D02*
X+1696660Y+4137714D01*
X+1727140Y+4137714D02*
X+1737300Y+4137714D01*
X+1752540Y+4137714D02*
X+1762700Y+4137714D01*
X+1793180Y+4137714D02*
X+1803340Y+4137714D01*
X+1828740Y+4137714D02*
X+1838900Y+4137714D01*
X+1859220Y+4137714D02*
X+1869380Y+4137714D01*
X+1904940Y+4137714D02*
X+1915100Y+4137714D01*
X+1930340Y+4137714D02*
X+1940500Y+4137714D01*
X+1986220Y+4137714D02*
X+1996380Y+4137714D01*
X+2016700Y+4137714D02*
X+2026860Y+4137714D01*
X+2057340Y+4137714D02*
X+2067500Y+4137714D01*
X+2082740Y+4137714D02*
X+2092900Y+4137714D01*
X+2128460Y+4137714D02*
X+2138620Y+4137714D01*
X+1630620Y+4142794D02*
X+1640780Y+4142794D01*
X+1686500Y+4142794D02*
X+1706820Y+4142794D01*
X+1727140Y+4142794D02*
X+1737300Y+4142794D01*
X+1752540Y+4142794D02*
X+1762700Y+4142794D01*
X+1793180Y+4142794D02*
X+1803340Y+4142794D01*
X+1828740Y+4142794D02*
X+1838900Y+4142794D01*
X+1859220Y+4142794D02*
X+1869380Y+4142794D01*
X+1904940Y+4142794D02*
X+1915100Y+4142794D01*
X+1925260Y+4142794D02*
X+1940500Y+4142794D01*
X+1986220Y+4142794D02*
X+1996380Y+4142794D01*
X+2016700Y+4142794D02*
X+2026860Y+4142794D01*
X+2057340Y+4142794D02*
X+2067500Y+4142794D01*
X+2082740Y+4142794D02*
X+2092900Y+4142794D01*
X+2128460Y+4142794D02*
X+2138620Y+4142794D01*
X+1630620Y+4147874D02*
X+1640780Y+4147874D01*
X+1691580Y+4147874D02*
X+1737300Y+4147874D01*
X+1752540Y+4147874D02*
X+1762700Y+4147874D01*
X+1793180Y+4147874D02*
X+1803340Y+4147874D01*
X+1828740Y+4147874D02*
X+1838900Y+4147874D01*
X+1859220Y+4147874D02*
X+1869380Y+4147874D01*
X+1904940Y+4147874D02*
X+1915100Y+4147874D01*
X+1925260Y+4147874D02*
X+1935420Y+4147874D01*
X+1986220Y+4147874D02*
X+1996380Y+4147874D01*
X+2016700Y+4147874D02*
X+2026860Y+4147874D01*
X+2057340Y+4147874D02*
X+2067500Y+4147874D01*
X+2082740Y+4147874D02*
X+2092900Y+4147874D01*
X+2128460Y+4147874D02*
X+2138620Y+4147874D01*
X+1630620Y+4152954D02*
X+1640780Y+4152954D01*
X+1706820Y+4152954D02*
X+1737300Y+4152954D01*
X+1752540Y+4152954D02*
X+1762700Y+4152954D01*
X+1793180Y+4152954D02*
X+1803340Y+4152954D01*
X+1828740Y+4152954D02*
X+1838900Y+4152954D01*
X+1859220Y+4152954D02*
X+1869380Y+4152954D01*
X+1904940Y+4152954D02*
X+1915100Y+4152954D01*
X+1925260Y+4152954D02*
X+1935420Y+4152954D01*
X+1965900Y+4152954D02*
X+1996380Y+4152954D01*
X+2016700Y+4152954D02*
X+2026860Y+4152954D01*
X+2057340Y+4152954D02*
X+2067500Y+4152954D01*
X+2082740Y+4152954D02*
X+2092900Y+4152954D01*
X+2128460Y+4152954D02*
X+2138620Y+4152954D01*
X+1630620Y+4158034D02*
X+1640780Y+4158034D01*
X+1727140Y+4158034D02*
X+1737300Y+4158034D01*
X+1752540Y+4158034D02*
X+1767780Y+4158034D01*
X+1793180Y+4158034D02*
X+1808420Y+4158034D01*
X+1828740Y+4158034D02*
X+1838900Y+4158034D01*
X+1859220Y+4158034D02*
X+1874460Y+4158034D01*
X+1899860Y+4158034D02*
X+1915100Y+4158034D01*
X+1925260Y+4158034D02*
X+1935420Y+4158034D01*
X+1965900Y+4158034D02*
X+1996380Y+4158034D01*
X+2016700Y+4158034D02*
X+2031940Y+4158034D01*
X+2057340Y+4158034D02*
X+2067500Y+4158034D01*
X+2082740Y+4158034D02*
X+2097980Y+4158034D01*
X+2128460Y+4158034D02*
X+2138620Y+4158034D01*
X+1630620Y+4163114D02*
X+1640780Y+4163114D01*
X+1691580Y+4163114D02*
X+1696660Y+4163114D01*
X+1722060Y+4163114D02*
X+1737300Y+4163114D01*
X+1752540Y+4163114D02*
X+1767780Y+4163114D01*
X+1788100Y+4163114D02*
X+1808420Y+4163114D01*
X+1823660Y+4163114D02*
X+1838900Y+4163114D01*
X+1859220Y+4163114D02*
X+1879540Y+4163114D01*
X+1899860Y+4163114D02*
X+1910020Y+4163114D01*
X+1925260Y+4163114D02*
X+1935420Y+4163114D01*
X+2016700Y+4163114D02*
X+2037020Y+4163114D01*
X+2052260Y+4163114D02*
X+2067500Y+4163114D01*
X+2087820Y+4163114D02*
X+2103060Y+4163114D01*
X+2123380Y+4163114D02*
X+2138620Y+4163114D01*
X+1630620Y+4168194D02*
X+1640780Y+4168194D01*
X+1691580Y+4168194D02*
X+1732220Y+4168194D01*
X+1752540Y+4168194D02*
X+1762700Y+4168194D01*
X+1767780Y+4168194D02*
X+1798260Y+4168194D01*
X+1803340Y+4168194D02*
X+1833820Y+4168194D01*
X+1859220Y+4168194D02*
X+1869380Y+4168194D01*
X+1874460Y+4168194D02*
X+1910020Y+4168194D01*
X+1925260Y+4168194D02*
X+1935420Y+4168194D01*
X+2016700Y+4168194D02*
X+2026860Y+4168194D01*
X+2031940Y+4168194D02*
X+2062420Y+4168194D01*
X+2092900Y+4168194D02*
X+2138620Y+4168194D01*
X+1630620Y+4173274D02*
X+1640780Y+4173274D01*
X+1696660Y+4173274D02*
X+1727140Y+4173274D01*
X+1752540Y+4173274D02*
X+1762700Y+4173274D01*
X+1772860Y+4173274D02*
X+1793180Y+4173274D01*
X+1808420Y+4173274D02*
X+1828740Y+4173274D01*
X+1859220Y+4173274D02*
X+1869380Y+4173274D01*
X+1879540Y+4173274D02*
X+1899860Y+4173274D01*
X+1930340Y+4173274D02*
X+1940500Y+4173274D01*
X+2016700Y+4173274D02*
X+2026860Y+4173274D01*
X+2037020Y+4173274D02*
X+2057340Y+4173274D01*
X+2097980Y+4173274D02*
X+2118300Y+4173274D01*
X+2128460Y+4173274D02*
X+2138620Y+4173274D01*
X+1630620Y+4178354D02*
X+1640780Y+4178354D01*
X+1930340Y+4178354D02*
X+1940500Y+4178354D01*
X+2128460Y+4178354D02*
X+2138620Y+4178354D01*
X+1630620Y+4183434D02*
X+1640780Y+4183434D01*
X+1935420Y+4183434D02*
X+1945580Y+4183434D01*
X+2128460Y+4183434D02*
X+2138620Y+4183434D01*
X+1630620Y+4188514D02*
X+1640780Y+4188514D01*
X+1940500Y+4188514D02*
X+1955740Y+4188514D01*
X+1991300Y+4188514D02*
X+1996380Y+4188514D01*
X+2128460Y+4188514D02*
X+2138620Y+4188514D01*
X+1630620Y+4193594D02*
X+1640780Y+4193594D01*
X+1945580Y+4193594D02*
X+1996380Y+4193594D01*
X+2128460Y+4193594D02*
X+2138620Y+4193594D01*
X+1630620Y+4198674D02*
X+1640780Y+4198674D01*
X+1955740Y+4198674D02*
X+1991300Y+4198674D01*
X+2128460Y+4198674D02*
X+2138620Y+4198674D01*
X+2128460Y+4203754D02*
X+2138620Y+4203754D01*
D29*
X+4258000Y+4160000D02*
X+4283876Y+4154920D01*
X+4307848Y+4140315D01*
X+4329438Y+4117138D01*
X+4348170Y+4086340D01*
X+4363569Y+4048875D01*
X+4375158Y+4005695D01*
X+4382460Y+3957752D01*
X+4385000Y+3906000D01*
X+4258000Y+3652000D02*
X+4283876Y+3657080D01*
X+4307848Y+3671685D01*
X+4329438Y+3694862D01*
X+4348170Y+3725660D01*
X+4363569Y+3763125D01*
X+4375158Y+3806305D01*
X+4382460Y+3854248D01*
X+4385000Y+3906000D01*
X+4258000Y+4160000D02*
X+4232124Y+4154920D01*
X+4208152Y+4140315D01*
X+4186562Y+4117138D01*
X+4167830Y+4086340D01*
X+4152431Y+4048875D01*
X+4140842Y+4005695D01*
X+4133540Y+3957752D01*
X+4131000Y+3906000D01*
X+4258000Y+3652000D02*
X+4232124Y+3657080D01*
X+4208152Y+3671685D01*
X+4186562Y+3694862D01*
X+4167830Y+3725660D01*
X+4152431Y+3763125D01*
X+4140842Y+3806305D01*
X+4133540Y+3854248D01*
X+4131000Y+3906000D01*
X+4501840Y+3874250D02*
X+4517080Y+3858375D01*
X+4517080Y+3810750D01*
X+4486600Y+3779000D01*
X+4456120Y+3779000D01*
X+4425640Y+3810750D01*
X+4425640Y+3858375D01*
X+4440880Y+3874250D01*
X+4440880Y+3921875D02*
X+4425640Y+3937750D01*
X+4425640Y+3985375D01*
X+4440880Y+4001250D01*
X+4456120Y+4001250D01*
X+4471360Y+3985375D01*
X+4471360Y+3937750D01*
X+4486600Y+3921875D01*
X+4517080Y+3921875D01*
X+4517080Y+4001250D01*
X+3862000Y+3872000D02*
X+3861173Y+3892483D01*
X+3854455Y+3933450D01*
X+3840437Y+3974417D01*
X+3817659Y+4015384D01*
X+3782859Y+4056229D01*
X+3741892Y+4087845D01*
X+3700925Y+4108392D01*
X+3659958Y+4120629D01*
X+3618991Y+4125762D01*
X+3608000Y+4126000D01*
X+3354000Y+3872000D02*
X+3354827Y+3892483D01*
X+3361545Y+3933450D01*
X+3375563Y+3974417D01*
X+3398341Y+4015384D01*
X+3433141Y+4056229D01*
X+3474108Y+4087845D01*
X+3515075Y+4108392D01*
X+3556042Y+4120629D01*
X+3597009Y+4125762D01*
X+3608000Y+4126000D01*
X+3354000Y+3872000D02*
X+3354827Y+3851517D01*
X+3361545Y+3810550D01*
X+3375563Y+3769583D01*
X+3398341Y+3728616D01*
X+3433141Y+3687771D01*
X+3474108Y+3656155D01*
X+3515075Y+3635608D01*
X+3556042Y+3623371D01*
X+3597009Y+3618238D01*
X+3608000Y+3618000D01*
X+3862000Y+3872000D02*
X+3861173Y+3851517D01*
X+3854455Y+3810550D01*
X+3840437Y+3769583D01*
X+3817659Y+3728616D01*
X+3782859Y+3687771D01*
X+3741892Y+3656155D01*
X+3700925Y+3635608D01*
X+3659958Y+3623371D01*
X+3618991Y+3618238D01*
X+3608000Y+3618000D01*
X+3735000Y+4062500D02*
X+3735000Y+3935500D01*
X+3798500Y+3999000D02*
X+3671500Y+3999000D01*
X+3978840Y+3968170D02*
X+3994080Y+3952295D01*
X+3994080Y+3904670D01*
X+3963600Y+3872920D01*
X+3933120Y+3872920D01*
X+3902640Y+3904670D01*
X+3902640Y+3952295D01*
X+3917880Y+3968170D01*
X+3933120Y+4031670D02*
X+3902640Y+4063420D01*
X+3994080Y+4063420D01*
X+3997000Y+3194000D02*
X+3996173Y+3214483D01*
X+3989455Y+3255450D01*
X+3975437Y+3296417D01*
X+3952659Y+3337384D01*
X+3917859Y+3378229D01*
X+3876892Y+3409845D01*
X+3835925Y+3430392D01*
X+3794958Y+3442629D01*
X+3753991Y+3447762D01*
X+3743000Y+3448000D01*
X+3489000Y+3194000D02*
X+3489827Y+3214483D01*
X+3496545Y+3255450D01*
X+3510563Y+3296417D01*
X+3533341Y+3337384D01*
X+3568141Y+3378229D01*
X+3609108Y+3409845D01*
X+3650075Y+3430392D01*
X+3691042Y+3442629D01*
X+3732009Y+3447762D01*
X+3743000Y+3448000D01*
X+3489000Y+3194000D02*
X+3489827Y+3173517D01*
X+3496545Y+3132550D01*
X+3510563Y+3091583D01*
X+3533341Y+3050616D01*
X+3568141Y+3009771D01*
X+3609108Y+2978155D01*
X+3650075Y+2957608D01*
X+3691042Y+2945371D01*
X+3732009Y+2940238D01*
X+3743000Y+2940000D01*
X+3997000Y+3194000D02*
X+3996173Y+3173517D01*
X+3989455Y+3132550D01*
X+3975437Y+3091583D01*
X+3952659Y+3050616D01*
X+3917859Y+3009771D01*
X+3876892Y+2978155D01*
X+3835925Y+2957608D01*
X+3794958Y+2945371D01*
X+3753991Y+2940238D01*
X+3743000Y+2940000D01*
X+3616000Y+3003500D02*
X+3616000Y+3130500D01*
X+3552500Y+3067000D02*
X+3679500Y+3067000D01*
X+3433120Y+3161330D02*
X+3448360Y+3145455D01*
X+3448360Y+3097830D01*
X+3417880Y+3066080D01*
X+3387400Y+3066080D01*
X+3356920Y+3097830D01*
X+3356920Y+3145455D01*
X+3372160Y+3161330D01*
X+3417880Y+3288330D02*
X+3417880Y+3193080D01*
X+3356920Y+3256580D01*
X+3448360Y+3256580D01*
X+4318000Y+2921000D02*
X+4292124Y+2926080D01*
X+4268152Y+2940685D01*
X+4246562Y+2963862D01*
X+4227830Y+2994660D01*
X+4212431Y+3032125D01*
X+4200842Y+3075305D01*
X+4193540Y+3123248D01*
X+4191000Y+3175000D01*
X+4318000Y+3429000D02*
X+4292124Y+3423920D01*
X+4268152Y+3409315D01*
X+4246562Y+3386138D01*
X+4227830Y+3355340D01*
X+4212431Y+3317875D01*
X+4200842Y+3274695D01*
X+4193540Y+3226752D01*
X+4191000Y+3175000D01*
X+4318000Y+2921000D02*
X+4343876Y+2926080D01*
X+4367848Y+2940685D01*
X+4389438Y+2963862D01*
X+4408170Y+2994660D01*
X+4423569Y+3032125D01*
X+4435158Y+3075305D01*
X+4442460Y+3123248D01*
X+4445000Y+3175000D01*
X+4318000Y+3429000D02*
X+4343876Y+3423920D01*
X+4367848Y+3409315D01*
X+4389438Y+3386138D01*
X+4408170Y+3355340D01*
X+4423569Y+3317875D01*
X+4435158Y+3274695D01*
X+4442460Y+3226752D01*
X+4445000Y+3175000D01*
X+4135120Y+3143250D02*
X+4150360Y+3127375D01*
X+4150360Y+3079750D01*
X+4119880Y+3048000D01*
X+4089400Y+3048000D01*
X+4058920Y+3079750D01*
X+4058920Y+3127375D01*
X+4074160Y+3143250D01*
X+4074160Y+3190875D02*
X+4058920Y+3206750D01*
X+4058920Y+3254375D01*
X+4074160Y+3270250D01*
X+4089400Y+3270250D01*
X+4104640Y+3254375D01*
X+4119880Y+3270250D01*
X+4135120Y+3270250D01*
X+4150360Y+3254375D01*
X+4150360Y+3206750D01*
X+4135120Y+3190875D01*
X+4104640Y+3222625D02*
X+4104640Y+3254375D01*
X-369000Y+1135000D02*
X-369000Y+1008000D01*
X-432500Y+500000D02*
X-305500Y+500000D01*
X-305500Y+1008000D01*
X-432500Y+1008000D01*
X-432500Y+500000D01*
X-369000Y+500000D02*
X-369000Y+373000D01*
X-173420Y+627000D02*
X-264860Y+627000D01*
X-264860Y+706375D01*
X-249620Y+722250D01*
X-234380Y+722250D01*
X-219140Y+706375D01*
X-219140Y+627000D01*
X-219140Y+706375D02*
X-203900Y+722250D01*
X-173420Y+722250D01*
X-249620Y+769875D02*
X-264860Y+785750D01*
X-264860Y+833375D01*
X-249620Y+849250D01*
X-234380Y+849250D01*
X-219140Y+833375D01*
X-219140Y+785750D01*
X-203900Y+769875D01*
X-173420Y+769875D01*
X-173420Y+849250D01*
X-615000Y+1135000D02*
X-615000Y+1008000D01*
X-678500Y+500000D02*
X-551500Y+500000D01*
X-551500Y+1008000D01*
X-678500Y+1008000D01*
X-678500Y+500000D01*
X-615000Y+500000D02*
X-615000Y+373000D01*
X-419420Y+627000D02*
X-510860Y+627000D01*
X-510860Y+706375D01*
X-495620Y+722250D01*
X-480380Y+722250D01*
X-465140Y+706375D01*
X-465140Y+627000D01*
X-465140Y+706375D02*
X-449900Y+722250D01*
X-419420Y+722250D01*
X-480380Y+785750D02*
X-510860Y+817500D01*
X-419420Y+817500D01*
M02*
