G04 PROTEUS GERBER X2 FILE*
%TF.GenerationSoftware,Labcenter,Proteus,8.6-SP2-Build23525*%
%TF.CreationDate,2020-11-09T16:46:44+00:00*%
%TF.FileFunction,Soldermask,Top*%
%TF.FilePolarity,Negative*%
%TF.Part,Single*%
%FSLAX45Y45*%
%MOMM*%
G01*
%TA.AperFunction,Material*%
%ADD30C,1.016000*%
%ADD31C,0.812800*%
%TA.AperFunction,Material*%
%ADD32C,1.778000*%
%AMPPAD027*
4,1,8,
0.509800,-1.397000,
-0.509800,-1.397000,
-0.889000,-1.017800,
-0.889000,1.017800,
-0.509800,1.397000,
0.509800,1.397000,
0.889000,1.017800,
0.889000,-1.017800,
0.509800,-1.397000,
0*%
%TA.AperFunction,Material*%
%ADD33PPAD027*%
%TA.AperFunction,Material*%
%ADD34C,2.794000*%
%AMPPAD029*
4,1,36,
-0.635000,0.762000,
0.635000,0.762000,
0.660970,0.759470,
0.684980,0.752200,
0.706580,0.740650,
0.725290,0.725290,
0.740650,0.706570,
0.752200,0.684980,
0.759470,0.660970,
0.762000,0.635000,
0.762000,-0.635000,
0.759470,-0.660970,
0.752200,-0.684980,
0.740650,-0.706570,
0.725290,-0.725290,
0.706580,-0.740650,
0.684980,-0.752200,
0.660970,-0.759470,
0.635000,-0.762000,
-0.635000,-0.762000,
-0.660970,-0.759470,
-0.684980,-0.752200,
-0.706580,-0.740650,
-0.725290,-0.725290,
-0.740650,-0.706570,
-0.752200,-0.684980,
-0.759470,-0.660970,
-0.762000,-0.635000,
-0.762000,0.635000,
-0.759470,0.660970,
-0.752200,0.684980,
-0.740650,0.706570,
-0.725290,0.725290,
-0.706580,0.740650,
-0.684980,0.752200,
-0.660970,0.759470,
-0.635000,0.762000,
0*%
%TA.AperFunction,Material*%
%ADD35PPAD029*%
%ADD36C,1.524000*%
%AMPPAD031*
4,1,36,
-1.143000,-1.016000,
-1.143000,1.016000,
-1.140470,1.041970,
-1.133200,1.065980,
-1.121650,1.087580,
-1.106290,1.106290,
-1.087570,1.121650,
-1.065980,1.133200,
-1.041970,1.140470,
-1.016000,1.143000,
1.016000,1.143000,
1.041970,1.140470,
1.065980,1.133200,
1.087570,1.121650,
1.106290,1.106290,
1.121650,1.087580,
1.133200,1.065980,
1.140470,1.041970,
1.143000,1.016000,
1.143000,-1.016000,
1.140470,-1.041970,
1.133200,-1.065980,
1.121650,-1.087580,
1.106290,-1.106290,
1.087570,-1.121650,
1.065980,-1.133200,
1.041970,-1.140470,
1.016000,-1.143000,
-1.016000,-1.143000,
-1.041970,-1.140470,
-1.065980,-1.133200,
-1.087570,-1.121650,
-1.106290,-1.106290,
-1.121650,-1.087580,
-1.133200,-1.065980,
-1.140470,-1.041970,
-1.143000,-1.016000,
0*%
%TA.AperFunction,Material*%
%ADD37PPAD031*%
%TA.AperFunction,Material*%
%ADD38C,2.540000*%
%ADD39C,2.032000*%
%ADD40C,2.286000*%
%TA.AperFunction,Profile*%
%ADD24C,0.203200*%
%TD.AperFunction*%
D30*
X+2873000Y+2167000D03*
D31*
X+234000Y+1143000D03*
D30*
X-127000Y+1143000D03*
D32*
X+1873000Y+1917000D03*
X+1873000Y+1663000D03*
X+1873000Y+1409000D03*
X+1873000Y+1155000D03*
X+1873000Y+901000D03*
X+1873000Y+647000D03*
X+1873000Y+393000D03*
X+1873000Y+139000D03*
X+1873000Y-115000D03*
X+1873000Y-369000D03*
X+1873000Y-623000D03*
X+1873000Y-877000D03*
X+1873000Y-1131000D03*
X+1873000Y-1385000D03*
X+1873000Y-1639000D03*
X+3397000Y-1639000D03*
X+3397000Y-1385000D03*
X+3397000Y-1131000D03*
X+3397000Y-877000D03*
X+3397000Y-623000D03*
X+3397000Y-369000D03*
X+3397000Y-115000D03*
X+3397000Y+139000D03*
X+3397000Y+393000D03*
X+3397000Y+647000D03*
X+3397000Y+901000D03*
X+3397000Y+1155000D03*
X+3397000Y+1409000D03*
X+3397000Y+1663000D03*
X+3397000Y+1917000D03*
D33*
X+5512000Y-1250000D03*
X+5258000Y-1250000D03*
X+5004000Y-1250000D03*
X+4750000Y-1250000D03*
X+4496000Y-1250000D03*
X+4242000Y-1250000D03*
D34*
X+2965000Y+4000000D03*
X-400000Y+1900000D03*
X+800000Y+1900000D03*
X+200000Y+1700000D03*
X-400000Y+3120000D03*
X+800000Y+3120000D03*
D35*
X+103000Y+504000D03*
D36*
X+357000Y+504000D03*
X+357000Y+1266000D03*
X+103000Y+1266000D03*
D34*
X+2465000Y+4000000D03*
X-350000Y+4000000D03*
X+150000Y+4000000D03*
X+650000Y+4000000D03*
D37*
X+1568000Y+2702000D03*
X+1568000Y+2956000D03*
X+1568000Y+3210000D03*
D32*
X-1072000Y+1612200D03*
X-1072000Y+1409000D03*
X-1072000Y+1205800D03*
D38*
X+1274000Y+1774000D03*
X+1274000Y+758000D03*
X+3100000Y+2985000D03*
X+2084000Y+2985000D03*
X+1933000Y+3623000D03*
X+2949000Y+3623000D03*
D34*
X+1500000Y+4000000D03*
D39*
X+4258000Y+4033000D03*
X+4258000Y+3779000D03*
D40*
X+3608000Y+3999000D03*
X+3608000Y+3745000D03*
X+3743000Y+3067000D03*
X+3743000Y+3321000D03*
D39*
X+4318000Y+3048000D03*
X+4318000Y+3302000D03*
X-369000Y+1262000D03*
X-369000Y+246000D03*
X-615000Y+1262000D03*
X-615000Y+246000D03*
D24*
X-1250000Y-2000000D02*
X+5960000Y-2000000D01*
X+5960000Y+4250000D01*
X-1250000Y+4250000D01*
X-1250000Y-2000000D01*
M02*
