G04 PROTEUS GERBER X2 FILE*
%TF.GenerationSoftware,Labcenter,Proteus,8.6-SP2-Build23525*%
%TF.CreationDate,2020-11-09T16:46:44+00:00*%
%TF.FileFunction,Plated,1,2,PTH*%
%TF.FilePolarity,Positive*%
%TF.Part,Single*%
%FSLAX45Y45*%
%MOMM*%
G01*
%TA.AperFunction,ViaDrill*%
%ADD51C,0.381000*%
%ADD52C,0.254000*%
%TA.AperFunction,ComponentDrill*%
%ADD53C,0.965200*%
%TA.AperFunction,ComponentDrill*%
%ADD54C,1.000000*%
%TA.AperFunction,MechanicalDrill*%
%ADD55C,3.200000*%
%TA.AperFunction,OtherDrill,Unknown*%
%ADD56C,1.524000*%
%TA.AperFunction,ComponentDrill*%
%ADD57C,1.524000*%
%TA.AperFunction,ComponentDrill*%
%ADD58C,0.762000*%
%TA.AperFunction,ComponentDrill*%
%ADD59C,1.016000*%
%TD.AperFunction*%
D51*
X+2873000Y+2167000D03*
D52*
X+234000Y+1143000D03*
D51*
X-127000Y+1143000D03*
D53*
X+1873000Y+1917000D03*
X+1873000Y+1663000D03*
X+1873000Y+1409000D03*
X+1873000Y+1155000D03*
X+1873000Y+901000D03*
X+1873000Y+647000D03*
X+1873000Y+393000D03*
X+1873000Y+139000D03*
X+1873000Y-115000D03*
X+1873000Y-369000D03*
X+1873000Y-623000D03*
X+1873000Y-877000D03*
X+1873000Y-1131000D03*
X+1873000Y-1385000D03*
X+1873000Y-1639000D03*
X+3397000Y-1639000D03*
X+3397000Y-1385000D03*
X+3397000Y-1131000D03*
X+3397000Y-877000D03*
X+3397000Y-623000D03*
X+3397000Y-369000D03*
X+3397000Y-115000D03*
X+3397000Y+139000D03*
X+3397000Y+393000D03*
X+3397000Y+647000D03*
X+3397000Y+901000D03*
X+3397000Y+1155000D03*
X+3397000Y+1409000D03*
X+3397000Y+1663000D03*
X+3397000Y+1917000D03*
D54*
X+5512000Y-1250000D03*
X+5258000Y-1250000D03*
X+5004000Y-1250000D03*
X+4750000Y-1250000D03*
X+4496000Y-1250000D03*
X+4242000Y-1250000D03*
D55*
X-1000000Y-1750000D03*
X-1000000Y+4000000D03*
X+5715000Y+4064000D03*
X+5715000Y-1778000D03*
D56*
X+2965000Y+4000000D03*
D57*
X-400000Y+1900000D03*
X+800000Y+1900000D03*
X+200000Y+1700000D03*
X-400000Y+3120000D03*
X+800000Y+3120000D03*
D58*
X+103000Y+504000D03*
X+357000Y+504000D03*
X+357000Y+1266000D03*
X+103000Y+1266000D03*
D56*
X+2465000Y+4000000D03*
X-350000Y+4000000D03*
X+150000Y+4000000D03*
X+650000Y+4000000D03*
D59*
X+1568000Y+2702000D03*
X+1568000Y+2956000D03*
X+1568000Y+3210000D03*
D58*
X-1072000Y+1612200D03*
X-1072000Y+1409000D03*
X-1072000Y+1205800D03*
D59*
X+1274000Y+1774000D03*
X+1274000Y+758000D03*
X+3100000Y+2985000D03*
X+2084000Y+2985000D03*
X+1933000Y+3623000D03*
X+2949000Y+3623000D03*
D56*
X+1500000Y+4000000D03*
D58*
X+4258000Y+4033000D03*
X+4258000Y+3779000D03*
X+3608000Y+3999000D03*
X+3608000Y+3745000D03*
X+3743000Y+3067000D03*
X+3743000Y+3321000D03*
X+4318000Y+3048000D03*
X+4318000Y+3302000D03*
X-369000Y+1262000D03*
X-369000Y+246000D03*
X-615000Y+1262000D03*
X-615000Y+246000D03*
M02*
