G04 PROTEUS GERBER X2 FILE*
%TF.GenerationSoftware,Labcenter,Proteus,8.6-SP2-Build23525*%
%TF.CreationDate,2020-11-14T07:55:46+00:00*%
%TF.FileFunction,AssemblyDrawing,Top*%
%TF.FilePolarity,Positive*%
%TF.Part,Single*%
%FSLAX45Y45*%
%MOMM*%
G01*
%TA.AperFunction,Material*%
%ADD28C,0.152400*%
%ADD42C,0.192020*%
%ADD29C,0.203200*%
%ADD43C,0.240790*%
%TA.AperFunction,Profile*%
%ADD24C,0.203200*%
%TA.AperFunction,Material*%
%ADD44C,0.567580*%
%ADD45C,0.074080*%
%ADD46C,0.235370*%
%ADD47C,0.172210*%
%ADD48C,0.164590*%
%ADD49C,0.050800*%
%ADD50C,0.191010*%
%ADD51C,0.106680*%
%ADD52C,0.039180*%
%ADD53C,0.034290*%
%ADD54C,0.105660*%
%ADD55C,0.197270*%
%TD.AperFunction*%
D28*
X+2025400Y+2310700D02*
X+1720600Y+2310700D01*
X+1720600Y-2032700D01*
X+2025400Y-2032700D01*
X+2025400Y+2310700D01*
X+1720600Y+2310700D01*
X+1720600Y-2032700D01*
X+2025400Y-2032700D01*
X+2025400Y+2310700D01*
D42*
X+1892203Y-14619D02*
X+1911405Y-14619D01*
X+1930608Y+4583D01*
X+1930608Y+81392D01*
X+1911405Y+100595D01*
X+1815393Y+100595D01*
X+1892203Y+254214D02*
X+1892203Y+139000D01*
X+1815393Y+215809D01*
X+1930608Y+215809D01*
D28*
X+3244600Y-2032700D02*
X+3549400Y-2032700D01*
X+3549400Y+2310700D01*
X+3244600Y+2310700D01*
X+3244600Y-2032700D01*
X+3549400Y-2032700D01*
X+3549400Y+2310700D01*
X+3244600Y+2310700D01*
X+3244600Y-2032700D01*
D42*
X+3416203Y-14619D02*
X+3435405Y-14619D01*
X+3454608Y+4583D01*
X+3454608Y+81392D01*
X+3435405Y+100595D01*
X+3339393Y+100595D01*
X+3339393Y+254214D02*
X+3339393Y+158202D01*
X+3377798Y+158202D01*
X+3377798Y+235011D01*
X+3397000Y+254214D01*
X+3435405Y+254214D01*
X+3454608Y+235011D01*
X+3454608Y+177404D01*
X+3435405Y+158202D01*
D29*
X+4104840Y-1450660D02*
X+5649160Y-1450660D01*
X+5649160Y-1049340D01*
X+4104840Y-1049340D01*
X+4104840Y-1450660D01*
D43*
X+4684367Y-1322238D02*
X+4684367Y-1177763D01*
X+4804762Y-1177763D01*
X+4828841Y-1201842D01*
X+4828841Y-1225921D01*
X+4804762Y-1250000D01*
X+4828841Y-1274080D01*
X+4828841Y-1298159D01*
X+4804762Y-1322238D01*
X+4684367Y-1322238D01*
X+4684367Y-1250000D02*
X+4804762Y-1250000D01*
X+4877000Y-1177763D02*
X+5021474Y-1177763D01*
X+4949237Y-1177763D02*
X+4949237Y-1322238D01*
D24*
X-1250000Y-2127000D02*
X+6087000Y-2127000D01*
X+6087000Y+4250000D01*
X-1250000Y+4250000D01*
X-1250000Y-2127000D01*
D29*
X-641160Y+1439840D02*
X+1019160Y+1439840D01*
X+1019160Y+3710160D01*
X-641160Y+3710160D01*
X-641160Y+1439840D01*
D44*
X+359274Y+1893904D02*
X+18726Y+1893904D01*
X+18726Y+2177694D01*
X+75484Y+2234452D01*
X+132242Y+2234452D01*
X+189000Y+2177694D01*
X+189000Y+1893904D01*
X+189000Y+2177694D02*
X+245758Y+2234452D01*
X+359274Y+2234452D01*
X+18726Y+2347968D02*
X+359274Y+2347968D01*
X+359274Y+2688516D01*
X+75484Y+2858790D02*
X+18726Y+2915548D01*
X+18726Y+3085822D01*
X+75484Y+3142580D01*
X+132242Y+3142580D01*
X+189000Y+3085822D01*
X+189000Y+2915548D01*
X+245758Y+2858790D01*
X+359274Y+2858790D01*
X+359274Y+3142580D01*
D29*
X-34160Y+440500D02*
X+494160Y+440500D01*
X+494160Y+1329500D01*
X-34160Y+1329500D01*
X-34160Y+440500D01*
D45*
X+222592Y+559037D02*
X+207775Y+573853D01*
X+207775Y+588670D01*
X+222592Y+603486D01*
X+237408Y+603486D01*
X+252225Y+588670D01*
X+252225Y+573853D01*
X+237408Y+559037D01*
X+222592Y+559037D01*
X+252225Y+618303D02*
X+207775Y+618303D01*
X+207775Y+655344D01*
X+215183Y+662752D01*
X+222592Y+662752D01*
X+230000Y+655344D01*
X+230000Y+618303D01*
X+207775Y+677569D02*
X+207775Y+722018D01*
X+207775Y+699793D02*
X+252225Y+699793D01*
X+222592Y+736835D02*
X+207775Y+751651D01*
X+207775Y+766468D01*
X+222592Y+781284D01*
X+237408Y+781284D01*
X+252225Y+766468D01*
X+252225Y+751651D01*
X+237408Y+736835D01*
X+222592Y+736835D01*
X+244817Y+840550D02*
X+252225Y+833142D01*
X+252225Y+810917D01*
X+237408Y+796101D01*
X+222592Y+796101D01*
X+207775Y+810917D01*
X+207775Y+833142D01*
X+215183Y+840550D01*
X+222592Y+855367D02*
X+207775Y+870183D01*
X+207775Y+885000D01*
X+222592Y+899816D01*
X+237408Y+899816D01*
X+252225Y+885000D01*
X+252225Y+870183D01*
X+237408Y+855367D01*
X+222592Y+855367D01*
X+207775Y+914633D02*
X+244817Y+914633D01*
X+252225Y+922041D01*
X+252225Y+951674D01*
X+244817Y+959082D01*
X+207775Y+959082D01*
X+252225Y+973899D02*
X+207775Y+973899D01*
X+207775Y+1010940D01*
X+215183Y+1018348D01*
X+222592Y+1018348D01*
X+230000Y+1010940D01*
X+230000Y+973899D01*
X+207775Y+1033165D02*
X+252225Y+1033165D01*
X+252225Y+1077614D01*
X+252225Y+1136880D02*
X+252225Y+1092431D01*
X+207775Y+1092431D01*
X+207775Y+1136880D01*
X+230000Y+1092431D02*
X+230000Y+1122064D01*
X+252225Y+1151697D02*
X+207775Y+1151697D01*
X+207775Y+1188738D01*
X+215183Y+1196146D01*
X+222592Y+1196146D01*
X+230000Y+1188738D01*
X+230000Y+1151697D01*
X+230000Y+1188738D02*
X+237408Y+1196146D01*
X+252225Y+1196146D01*
D29*
X+1303840Y+2564840D02*
X+1705160Y+2564840D01*
X+1705160Y+3347160D01*
X+1303840Y+3347160D01*
X+1303840Y+2564840D01*
D43*
X+1432263Y+2763367D02*
X+1552659Y+2763367D01*
X+1576738Y+2787446D01*
X+1576738Y+2883762D01*
X+1552659Y+2907841D01*
X+1432263Y+2907841D01*
X+1480421Y+3004158D02*
X+1432263Y+3052316D01*
X+1576738Y+3052316D01*
D29*
X-1247260Y+1055940D02*
X-744340Y+1055940D01*
X-744340Y+1762060D01*
X-1247260Y+1762060D01*
X-1247260Y+1055940D01*
D46*
X-1019337Y+1220702D02*
X-1066412Y+1267776D01*
X-1066412Y+1314851D01*
X-1019337Y+1361925D01*
X-972263Y+1361925D01*
X-925188Y+1314851D01*
X-925188Y+1267776D01*
X-972263Y+1220702D01*
X-1019337Y+1220702D01*
X-972263Y+1314851D02*
X-925188Y+1361925D01*
X-1019337Y+1456074D02*
X-1066412Y+1503149D01*
X-925188Y+1503149D01*
D29*
X+1129220Y+643700D02*
X+1416240Y+643700D01*
X+1416240Y+1888300D01*
X+1129220Y+1888300D01*
X+1129220Y+643700D01*
D47*
X+1324394Y+1128231D02*
X+1221067Y+1128231D01*
X+1221067Y+1197115D01*
X+1255509Y+1231557D01*
X+1289952Y+1231557D01*
X+1324394Y+1197115D01*
X+1324394Y+1128231D01*
X+1255509Y+1300442D02*
X+1221067Y+1334884D01*
X+1324394Y+1334884D01*
D29*
X+1969700Y+2842760D02*
X+3214300Y+2842760D01*
X+3214300Y+3129780D01*
X+1969700Y+3129780D01*
X+1969700Y+2842760D01*
D47*
X+2454231Y+2934606D02*
X+2454231Y+3037933D01*
X+2523115Y+3037933D01*
X+2557557Y+3003491D01*
X+2557557Y+2969048D01*
X+2523115Y+2934606D01*
X+2454231Y+2934606D01*
X+2609221Y+3020712D02*
X+2626442Y+3037933D01*
X+2678105Y+3037933D01*
X+2695326Y+3020712D01*
X+2695326Y+3003491D01*
X+2678105Y+2986270D01*
X+2626442Y+2986270D01*
X+2609221Y+2969048D01*
X+2609221Y+2934606D01*
X+2695326Y+2934606D01*
D29*
X+1818700Y+3478220D02*
X+3063300Y+3478220D01*
X+3063300Y+3765240D01*
X+1818700Y+3765240D01*
X+1818700Y+3478220D01*
D47*
X+2303231Y+3570066D02*
X+2303231Y+3673393D01*
X+2372115Y+3673393D01*
X+2406557Y+3638951D01*
X+2406557Y+3604508D01*
X+2372115Y+3570066D01*
X+2303231Y+3570066D01*
X+2458221Y+3656172D02*
X+2475442Y+3673393D01*
X+2527105Y+3673393D01*
X+2544326Y+3656172D01*
X+2544326Y+3638951D01*
X+2527105Y+3621730D01*
X+2544326Y+3604508D01*
X+2544326Y+3587287D01*
X+2527105Y+3570066D01*
X+2475442Y+3570066D01*
X+2458221Y+3587287D01*
X+2492663Y+3621730D02*
X+2527105Y+3621730D01*
D29*
X+4120840Y+3641840D02*
X+4395160Y+3641840D01*
X+4395160Y+4170160D01*
X+4120840Y+4170160D01*
X+4120840Y+3641840D01*
D48*
X+4290919Y+3873081D02*
X+4307378Y+3856622D01*
X+4307378Y+3807245D01*
X+4274460Y+3774327D01*
X+4241541Y+3774327D01*
X+4208623Y+3807245D01*
X+4208623Y+3856622D01*
X+4225082Y+3873081D01*
X+4225082Y+3922459D02*
X+4208623Y+3938918D01*
X+4208623Y+3988295D01*
X+4225082Y+4004754D01*
X+4241541Y+4004754D01*
X+4258000Y+3988295D01*
X+4258000Y+3938918D01*
X+4274460Y+3922459D01*
X+4307378Y+3922459D01*
X+4307378Y+4004754D01*
D49*
X+3891980Y+3872920D02*
X+3891062Y+3895734D01*
X+3883609Y+3941363D01*
X+3868062Y+3986992D01*
X+3842820Y+4032621D01*
X+3804278Y+4078151D01*
X+3758649Y+4113647D01*
X+3713020Y+4136767D01*
X+3667391Y+4150620D01*
X+3621762Y+4156566D01*
X+3608000Y+4156900D01*
X+3324020Y+3872920D02*
X+3324938Y+3895734D01*
X+3332391Y+3941363D01*
X+3347938Y+3986992D01*
X+3373180Y+4032621D01*
X+3411722Y+4078151D01*
X+3457351Y+4113647D01*
X+3502980Y+4136767D01*
X+3548609Y+4150620D01*
X+3594238Y+4156566D01*
X+3608000Y+4156900D01*
X+3324020Y+3872920D02*
X+3324938Y+3850106D01*
X+3332391Y+3804477D01*
X+3347938Y+3758848D01*
X+3373180Y+3713219D01*
X+3411722Y+3667689D01*
X+3457351Y+3632193D01*
X+3502980Y+3609073D01*
X+3548609Y+3595220D01*
X+3594238Y+3589274D01*
X+3608000Y+3588940D01*
X+3891980Y+3872920D02*
X+3891062Y+3850106D01*
X+3883609Y+3804477D01*
X+3868062Y+3758848D01*
X+3842820Y+3713219D01*
X+3804278Y+3667689D01*
X+3758649Y+3632193D01*
X+3713020Y+3609073D01*
X+3667391Y+3595220D01*
X+3621762Y+3589274D01*
X+3608000Y+3588940D01*
D50*
X+3646203Y+3834717D02*
X+3665304Y+3815616D01*
X+3665304Y+3758312D01*
X+3627101Y+3720110D01*
X+3588899Y+3720110D01*
X+3550696Y+3758312D01*
X+3550696Y+3815616D01*
X+3569797Y+3834717D01*
X+3588899Y+3911122D02*
X+3550696Y+3949325D01*
X+3665304Y+3949325D01*
D49*
X+4026980Y+3193080D02*
X+4026062Y+3215894D01*
X+4018609Y+3261523D01*
X+4003062Y+3307152D01*
X+3977820Y+3352781D01*
X+3939278Y+3398311D01*
X+3893649Y+3433807D01*
X+3848020Y+3456927D01*
X+3802391Y+3470780D01*
X+3756762Y+3476726D01*
X+3743000Y+3477060D01*
X+3459020Y+3193080D02*
X+3459938Y+3215894D01*
X+3467391Y+3261523D01*
X+3482938Y+3307152D01*
X+3508180Y+3352781D01*
X+3546722Y+3398311D01*
X+3592351Y+3433807D01*
X+3637980Y+3456927D01*
X+3683609Y+3470780D01*
X+3729238Y+3476726D01*
X+3743000Y+3477060D01*
X+3459020Y+3193080D02*
X+3459938Y+3170266D01*
X+3467391Y+3124637D01*
X+3482938Y+3079008D01*
X+3508180Y+3033379D01*
X+3546722Y+2987849D01*
X+3592351Y+2952353D01*
X+3637980Y+2929233D01*
X+3683609Y+2915380D01*
X+3729238Y+2909434D01*
X+3743000Y+2909100D01*
X+4026980Y+3193080D02*
X+4026062Y+3170266D01*
X+4018609Y+3124637D01*
X+4003062Y+3079008D01*
X+3977820Y+3033379D01*
X+3939278Y+2987849D01*
X+3893649Y+2952353D01*
X+3848020Y+2929233D01*
X+3802391Y+2915380D01*
X+3756762Y+2909434D01*
X+3743000Y+2909100D01*
D50*
X+3781203Y+3154877D02*
X+3800304Y+3135776D01*
X+3800304Y+3078472D01*
X+3762101Y+3040270D01*
X+3723899Y+3040270D01*
X+3685696Y+3078472D01*
X+3685696Y+3135776D01*
X+3704797Y+3154877D01*
X+3762101Y+3307687D02*
X+3762101Y+3193080D01*
X+3685696Y+3269485D01*
X+3800304Y+3269485D01*
D29*
X+4180840Y+2910840D02*
X+4455160Y+2910840D01*
X+4455160Y+3439160D01*
X+4180840Y+3439160D01*
X+4180840Y+2910840D01*
D48*
X+4350919Y+3142081D02*
X+4367378Y+3125622D01*
X+4367378Y+3076245D01*
X+4334460Y+3043327D01*
X+4301541Y+3043327D01*
X+4268623Y+3076245D01*
X+4268623Y+3125622D01*
X+4285082Y+3142081D01*
X+4285082Y+3191459D02*
X+4268623Y+3207918D01*
X+4268623Y+3257295D01*
X+4285082Y+3273754D01*
X+4301541Y+3273754D01*
X+4318000Y+3257295D01*
X+4334460Y+3273754D01*
X+4350919Y+3273754D01*
X+4367378Y+3257295D01*
X+4367378Y+3207918D01*
X+4350919Y+3191459D01*
X+4318000Y+3224377D02*
X+4318000Y+3257295D01*
D29*
X-457900Y+157100D02*
X-280100Y+157100D01*
X-280100Y+1350900D01*
X-457900Y+1350900D01*
X-457900Y+157100D01*
D51*
X-336996Y+668656D02*
X-401004Y+668656D01*
X-401004Y+721996D01*
X-390336Y+732664D01*
X-379668Y+732664D01*
X-369000Y+721996D01*
X-369000Y+668656D01*
X-369000Y+721996D02*
X-358332Y+732664D01*
X-336996Y+732664D01*
X-390336Y+764668D02*
X-401004Y+775336D01*
X-401004Y+807340D01*
X-390336Y+818008D01*
X-379668Y+818008D01*
X-369000Y+807340D01*
X-369000Y+775336D01*
X-358332Y+764668D01*
X-336996Y+764668D01*
X-336996Y+818008D01*
D29*
X-703900Y+157100D02*
X-526100Y+157100D01*
X-526100Y+1350900D01*
X-703900Y+1350900D01*
X-703900Y+157100D01*
D51*
X-582996Y+668656D02*
X-647004Y+668656D01*
X-647004Y+721996D01*
X-636336Y+732664D01*
X-625668Y+732664D01*
X-615000Y+721996D01*
X-615000Y+668656D01*
X-615000Y+721996D02*
X-604332Y+732664D01*
X-582996Y+732664D01*
X-625668Y+775336D02*
X-647004Y+796672D01*
X-582996Y+796672D01*
D29*
X+4612840Y+3862840D02*
X+4887160Y+3862840D01*
X+4887160Y+4137160D01*
X+4612840Y+4137160D01*
X+4612840Y+3862840D01*
D52*
X+4679462Y+4011756D02*
X+4659868Y+4011756D01*
X+4659868Y+4003918D01*
X+4675543Y+4003918D01*
X+4679462Y+4000000D01*
X+4679462Y+3992162D01*
X+4675543Y+3988243D01*
X+4663787Y+3988243D01*
X+4659868Y+3992162D01*
X+4687300Y+4011756D02*
X+4687300Y+4000000D01*
X+4699056Y+3988243D01*
X+4710812Y+4000000D01*
X+4710812Y+4011756D01*
X+4718650Y+4011756D02*
X+4742162Y+4011756D01*
X+4730406Y+4011756D02*
X+4730406Y+3988243D01*
X+4773512Y+3988243D02*
X+4750000Y+3988243D01*
X+4750000Y+4011756D01*
X+4773512Y+4011756D01*
X+4750000Y+4000000D02*
X+4765675Y+4000000D01*
X+4781350Y+3988243D02*
X+4781350Y+4011756D01*
X+4800943Y+4011756D01*
X+4804862Y+4007837D01*
X+4804862Y+4003918D01*
X+4800943Y+4000000D01*
X+4781350Y+4000000D01*
X+4800943Y+4000000D02*
X+4804862Y+3996081D01*
X+4804862Y+3988243D01*
X+4812700Y+3988243D02*
X+4812700Y+4011756D01*
X+4824456Y+4000000D01*
X+4836212Y+4011756D01*
X+4836212Y+3988243D01*
D29*
X+5112840Y+3862840D02*
X+5387160Y+3862840D01*
X+5387160Y+4137160D01*
X+5112840Y+4137160D01*
X+5112840Y+3862840D01*
D53*
X+5167704Y+3996571D02*
X+5174562Y+3996571D01*
X+5174562Y+3989713D01*
X+5160846Y+3989713D01*
X+5153988Y+3996571D01*
X+5153988Y+4003429D01*
X+5160846Y+4010287D01*
X+5171133Y+4010287D01*
X+5174562Y+4006858D01*
X+5181420Y+3989713D02*
X+5181420Y+4010287D01*
X+5201994Y+3989713D01*
X+5201994Y+4010287D01*
X+5208852Y+3989713D02*
X+5208852Y+4010287D01*
X+5222568Y+4010287D01*
X+5229426Y+4003429D01*
X+5229426Y+3996571D01*
X+5222568Y+3989713D01*
X+5208852Y+3989713D01*
X+5236284Y+4010287D02*
X+5256858Y+4010287D01*
X+5246571Y+4010287D02*
X+5246571Y+3989713D01*
X+5284290Y+3989713D02*
X+5263716Y+3989713D01*
X+5263716Y+4010287D01*
X+5284290Y+4010287D01*
X+5263716Y+4000000D02*
X+5277432Y+4000000D01*
X+5291148Y+3989713D02*
X+5291148Y+4010287D01*
X+5308293Y+4010287D01*
X+5311722Y+4006858D01*
X+5311722Y+4003429D01*
X+5308293Y+4000000D01*
X+5291148Y+4000000D01*
X+5308293Y+4000000D02*
X+5311722Y+3996571D01*
X+5311722Y+3989713D01*
X+5318580Y+3989713D02*
X+5318580Y+4010287D01*
X+5328867Y+4000000D01*
X+5339154Y+4010287D01*
X+5339154Y+3989713D01*
D28*
X+4774700Y-2005400D02*
X+4774700Y-1700600D01*
X+3733300Y-1700600D01*
X+3733300Y-2005400D01*
X+4774700Y-2005400D01*
X+4774700Y-1700600D01*
X+3733300Y-1700600D01*
X+3733300Y-2005400D01*
X+4774700Y-2005400D01*
D54*
X+3873611Y-1884700D02*
X+3873611Y-1842434D01*
X+3894743Y-1821301D01*
X+3915876Y-1821301D01*
X+3937009Y-1842434D01*
X+3937009Y-1884700D01*
X+3873611Y-1863567D02*
X+3937009Y-1863567D01*
X+3958142Y-1884700D02*
X+3958142Y-1821301D01*
X+4021540Y-1884700D01*
X+4021540Y-1821301D01*
X+4042673Y-1884700D02*
X+4042673Y-1842434D01*
X+4063805Y-1821301D01*
X+4084938Y-1821301D01*
X+4106071Y-1842434D01*
X+4106071Y-1884700D01*
X+4042673Y-1863567D02*
X+4106071Y-1863567D01*
X+4127204Y-1821301D02*
X+4127204Y-1884700D01*
X+4190602Y-1884700D01*
X+4211735Y-1842434D02*
X+4232867Y-1821301D01*
X+4254000Y-1821301D01*
X+4275133Y-1842434D01*
X+4275133Y-1863567D01*
X+4254000Y-1884700D01*
X+4232867Y-1884700D01*
X+4211735Y-1863567D01*
X+4211735Y-1842434D01*
X+4338531Y-1863567D02*
X+4359664Y-1863567D01*
X+4359664Y-1884700D01*
X+4317398Y-1884700D01*
X+4296266Y-1863567D01*
X+4296266Y-1842434D01*
X+4317398Y-1821301D01*
X+4349097Y-1821301D01*
X+4359664Y-1831868D01*
X+4380797Y-1884700D02*
X+4380797Y-1821301D01*
X+4433628Y-1821301D01*
X+4444195Y-1831868D01*
X+4444195Y-1842434D01*
X+4433628Y-1853000D01*
X+4380797Y-1853000D01*
X+4475894Y-1821301D02*
X+4518159Y-1821301D01*
X+4497027Y-1821301D02*
X+4497027Y-1884700D01*
X+4475894Y-1884700D02*
X+4518159Y-1884700D01*
X+4549859Y-1884700D02*
X+4549859Y-1821301D01*
X+4613257Y-1884700D01*
X+4613257Y-1821301D01*
D29*
X+5124840Y-2077660D02*
X+5716660Y-2077660D01*
X+5716660Y-1485840D01*
X+5124840Y-1485840D01*
X+5124840Y-2077660D01*
D55*
X+5262932Y-1840932D02*
X+5262932Y-1722568D01*
X+5341841Y-1722568D01*
X+5381295Y-1762023D01*
X+5381295Y-1801477D01*
X+5341841Y-1840932D01*
X+5262932Y-1840932D01*
X+5539113Y-1801477D02*
X+5420750Y-1801477D01*
X+5499659Y-1722568D01*
X+5499659Y-1840932D01*
D29*
X+2070100Y-1993900D02*
X+3263900Y-1993900D01*
X+3263900Y-1816100D01*
X+2070100Y-1816100D01*
X+2070100Y-1993900D01*
D51*
X+2581656Y-1937004D02*
X+2581656Y-1872996D01*
X+2634996Y-1872996D01*
X+2645664Y-1883664D01*
X+2645664Y-1894332D01*
X+2634996Y-1905000D01*
X+2581656Y-1905000D01*
X+2634996Y-1905000D02*
X+2645664Y-1915668D01*
X+2645664Y-1937004D01*
X+2677668Y-1883664D02*
X+2688336Y-1872996D01*
X+2720340Y-1872996D01*
X+2731008Y-1883664D01*
X+2731008Y-1894332D01*
X+2720340Y-1905000D01*
X+2731008Y-1915668D01*
X+2731008Y-1926336D01*
X+2720340Y-1937004D01*
X+2688336Y-1937004D01*
X+2677668Y-1926336D01*
X+2699004Y-1905000D02*
X+2720340Y-1905000D01*
D28*
X-1168400Y-1917700D02*
X-863600Y-1917700D01*
X-863600Y+647700D01*
X-1168400Y+647700D01*
X-1168400Y-1917700D01*
X-863600Y-1917700D01*
X-863600Y+647700D01*
X-1168400Y+647700D01*
X-1168400Y-1917700D01*
D42*
X-958392Y-1479904D02*
X-1073607Y-1479904D01*
X-1073607Y-1403095D01*
X-1035202Y-1364690D01*
X-996797Y-1364690D01*
X-958392Y-1403095D01*
X-958392Y-1479904D01*
X-1073607Y-1307083D02*
X-1073607Y-1230274D01*
X-1073607Y-1268678D02*
X-958392Y-1268678D01*
X-958392Y-1307083D02*
X-958392Y-1230274D01*
X-996797Y-1095857D02*
X-996797Y-1057452D01*
X-958392Y-1057452D01*
X-958392Y-1134262D01*
X-996797Y-1172666D01*
X-1035202Y-1172666D01*
X-1073607Y-1134262D01*
X-1073607Y-1076655D01*
X-1054404Y-1057452D01*
X-1073607Y-999845D02*
X-1073607Y-923036D01*
X-1073607Y-961440D02*
X-958392Y-961440D01*
X-958392Y-999845D02*
X-958392Y-923036D01*
X-1073607Y-865428D02*
X-1073607Y-750214D01*
X-1073607Y-807821D02*
X-958392Y-807821D01*
X-958392Y-711809D02*
X-1035202Y-711809D01*
X-1073607Y-673405D01*
X-1073607Y-635000D01*
X-1035202Y-596595D01*
X-958392Y-596595D01*
X-996797Y-711809D02*
X-996797Y-596595D01*
X-1073607Y-558190D02*
X-958392Y-558190D01*
X-958392Y-442976D01*
X-958392Y-404571D02*
X-1073607Y-404571D01*
X-1073607Y-308560D01*
X-1054404Y-289357D01*
X-1035202Y-289357D01*
X-1016000Y-308560D01*
X-1016000Y-404571D01*
X-1073607Y-231750D02*
X-1073607Y-154941D01*
X-1073607Y-193345D02*
X-958392Y-193345D01*
X-958392Y-231750D02*
X-958392Y-154941D01*
X-958392Y-97333D02*
X-1073607Y-97333D01*
X-958392Y+17881D01*
X-1073607Y+17881D01*
X-977595Y+56286D02*
X-958392Y+75488D01*
X-958392Y+152297D01*
X-977595Y+171500D01*
X-996797Y+171500D01*
X-1016000Y+152297D01*
X-1016000Y+75488D01*
X-1035202Y+56286D01*
X-1054404Y+56286D01*
X-1073607Y+75488D01*
X-1073607Y+152297D01*
X-1054404Y+171500D01*
M02*
